<svg width="433" height="133" viewBox="0 0 433 133" fill="none" xmlns="http://www.w3.org/2000/svg">
<g clip-path="url(#clip0_44_4688)">
<path d="M143.169 67.7908V38.2459H168.53C170.346 38.0962 172.158 38.5867 173.65 39.6323C174.207 40.2032 174.634 40.8873 174.902 41.638C175.171 42.3888 175.274 43.1885 175.205 43.9828V47.5922C175.226 48.2194 175.118 48.8443 174.887 49.4281C174.657 50.0119 174.309 50.5423 173.865 50.9865C172.834 51.9493 171.495 52.5166 170.085 52.5881C171.578 52.7145 172.977 53.3668 174.033 54.4287C174.512 54.9446 174.883 55.5505 175.125 56.2112C175.368 56.8719 175.476 57.5742 175.444 58.2771V62.0539C175.484 62.9105 175.302 63.7629 174.917 64.529C174.531 65.2951 173.955 65.9492 173.243 66.4283C171.237 67.5132 168.963 68.0025 166.688 67.8386L143.169 67.7908ZM165.659 43.0266H149.94V50.1977H165.659C166.481 50.2417 167.302 50.0859 168.051 49.7435C168.29 49.5384 168.477 49.2802 168.598 48.9895C168.718 48.6989 168.769 48.384 168.745 48.0703V45.1301C168.769 44.8164 168.718 44.5016 168.598 44.2109C168.477 43.9203 168.29 43.662 168.051 43.4569C167.3 43.1227 166.479 42.9751 165.659 43.0266ZM165.659 54.9784H149.94V62.4842H165.659C166.575 62.586 167.5 62.3845 168.291 61.9105C168.546 61.6369 168.74 61.312 168.86 60.9575C168.979 60.603 169.022 60.227 168.984 59.8548V57.6078C169.025 57.2354 168.984 56.8586 168.864 56.5036C168.744 56.1487 168.549 55.824 168.291 55.5521C167.5 55.0782 166.575 54.8766 165.659 54.9784Z" fill="white"/>
<path d="M188.699 45.2018C188.484 43.248 189.013 41.2851 190.182 39.704C191.895 38.5249 193.978 38.0068 196.044 38.2458H222.816V62.1495H228.798V72.4042H222.816V67.6235H188.699V72.4042H182.383V62.1495H188.699V45.2018ZM195.565 62.1495H215.926V43.4808H195.565V62.1495Z" fill="white"/>
<path d="M235.856 67.7908V38.2458H261.192C263.013 38.1043 264.829 38.5664 266.36 39.5605C266.922 40.1432 267.351 40.8396 267.619 41.6026C267.888 42.3656 267.989 43.1773 267.915 43.9827V50.5801C267.984 51.3743 267.881 52.1741 267.613 52.9248C267.345 53.6756 266.917 54.3597 266.36 54.9306C264.852 55.9796 263.024 56.4699 261.192 56.317H242.626V67.8386L235.856 67.7908ZM258.154 43.3134H242.626V51.1538H258.154C258.983 51.2209 259.814 51.0465 260.546 50.6518C260.786 50.4132 260.968 50.1239 261.08 49.8052C261.192 49.4866 261.23 49.1468 261.192 48.8112V45.656C261.23 45.3204 261.192 44.9806 261.08 44.662C260.968 44.3433 260.786 44.054 260.546 43.8154C259.814 43.4207 258.983 43.2463 258.154 43.3134Z" fill="white"/>
<path d="M280.261 55.4565V49.5522H297.439V55.4565H280.261Z" fill="white"/>
<path d="M336.581 43.4808H317.991V62.1495H336.581V57.3688H343.495V60.8826C343.718 62.8406 343.179 64.8092 341.988 66.3805C340.277 67.564 338.195 68.0902 336.126 67.8625H318.446C316.377 68.0902 314.295 67.564 312.584 66.3805C311.404 64.8047 310.873 62.8373 311.101 60.8826V45.2018C310.873 43.2471 311.404 41.2798 312.584 39.704C314.297 38.5249 316.38 38.0068 318.446 38.2458H336.126C338.199 38.0206 340.282 38.5559 341.988 39.7518C343.179 41.323 343.718 43.2916 343.495 45.2496V48.0703L336.581 47.8073V43.4808Z" fill="white"/>
<path d="M350.841 67.7908V38.2458H356.487L370.435 56.1497L384.001 38.2458H389.528V67.7908H383.14V49.5045C383.11 49.0668 383.11 48.6275 383.14 48.1898C383.14 47.7117 383.14 47.1141 383.307 46.3492C383.092 46.7077 382.924 47.0663 382.757 47.401L382.326 48.2376C382.109 48.6536 381.861 49.0531 381.585 49.4328L370.435 64.253H369.072L357.946 49.385C357.555 48.879 357.203 48.3436 356.894 47.7834C356.6 47.3306 356.352 46.8502 356.152 46.3492C356.152 46.9707 356.272 47.5444 356.319 48.0703V67.7908H350.841Z" fill="white"/>
<path d="M399.552 67.7908V38.2458H433.048V67.7908H426.133V43.8871H406.515V67.7908H399.552Z" fill="white"/>
<path d="M0 33.25V99.75L57.6839 133L115.368 99.75V33.25L57.6839 0L0 33.25Z" fill="white"/>
<g opacity="0.5">
<path d="M148.193 97.5509C147.499 97.5567 146.81 97.4352 146.16 97.1923C145.548 96.9593 144.988 96.6103 144.509 96.1644C144.049 95.7059 143.683 95.1619 143.432 94.5629C143.165 93.9364 143.034 93.2599 143.049 92.5789C143.077 91.8899 143.248 91.2143 143.552 90.5949C143.808 90 144.182 89.4632 144.652 89.0173C145.122 88.5716 145.675 88.2224 146.279 87.9894C146.937 87.7447 147.635 87.6231 148.337 87.6308C149.082 87.6274 149.821 87.7653 150.514 88.0372C151.152 88.2978 151.718 88.7077 152.165 89.2324L150.993 90.332C150.669 89.9633 150.269 89.6697 149.82 89.4714C149.371 89.295 148.892 89.2058 148.409 89.2085C147.943 89.1977 147.479 89.279 147.045 89.4475C146.637 89.6067 146.264 89.8419 145.944 90.1407C145.636 90.4481 145.392 90.8137 145.227 91.2164C144.876 92.0993 144.876 93.0824 145.227 93.9653C145.386 94.3641 145.631 94.7231 145.944 95.0171C146.256 95.3311 146.631 95.5755 147.045 95.7342C147.479 95.9027 147.943 95.984 148.409 95.9732C148.894 95.9803 149.376 95.8824 149.82 95.6864C150.278 95.5048 150.682 95.2085 150.993 94.8258L152.165 95.9493C151.707 96.4616 151.144 96.8692 150.514 97.1445C149.776 97.4342 148.986 97.5724 148.193 97.5509Z" fill="white"/>
<path d="M159.486 97.4075V88.8499L159.917 89.2802H156.304V87.7743H164.463V89.2802H160.85L161.257 88.8499V97.4075H159.486Z" fill="white"/>
<path d="M169.87 97.4074V87.846H173.841C174.596 87.8168 175.348 87.9556 176.042 88.2523C176.63 88.4872 177.126 88.9067 177.454 89.4475C177.799 89.9896 177.974 90.6222 177.956 91.2642C177.973 91.9136 177.798 92.5535 177.454 93.1048C177.112 93.6341 176.621 94.0501 176.042 94.3C175.344 94.5853 174.595 94.7237 173.841 94.7063H170.874L171.664 93.8697V97.4792L169.87 97.4074ZM171.664 93.9892L170.874 93.2243H173.769C174.408 93.2686 175.041 93.0913 175.564 92.7223C175.753 92.5395 175.904 92.3204 176.007 92.0781C176.11 91.8358 176.163 91.5753 176.163 91.312C176.163 91.0488 176.11 90.7882 176.007 90.5459C175.904 90.3036 175.753 90.0845 175.564 89.9017C175.041 89.5328 174.408 89.3554 173.769 89.3997H170.874L171.664 88.5153V93.9892Z" fill="white"/>
<path d="M188.149 97.5509C187.436 97.5648 186.728 97.4347 186.067 97.1684C185.444 96.9453 184.873 96.5953 184.392 96.1405C183.938 95.6865 183.573 95.1514 183.316 94.5629C183.048 93.9364 182.917 93.2599 182.933 92.5789C182.921 91.9059 183.051 91.238 183.316 90.6188C183.573 90.0303 183.938 89.4952 184.392 89.0412C184.879 88.5875 185.447 88.2306 186.067 87.9894C186.725 87.7447 187.423 87.6231 188.125 87.6308C188.834 87.6234 189.54 87.7449 190.206 87.9894C190.816 88.2367 191.375 88.5931 191.857 89.0412C192.311 89.4952 192.677 90.0303 192.934 90.6188C193.198 91.238 193.328 91.9059 193.316 92.5789C193.332 93.2599 193.201 93.9364 192.934 94.5629C192.689 95.158 192.322 95.6954 191.857 96.1405C191.38 96.5893 190.819 96.9388 190.206 97.1684C189.552 97.4304 188.853 97.5603 188.149 97.5509ZM188.149 95.9732C188.614 95.9792 189.077 95.8981 189.512 95.7342C189.911 95.5748 190.271 95.33 190.565 95.0171C190.873 94.7097 191.117 94.344 191.283 93.9414C191.633 93.075 191.633 92.1067 191.283 91.2403C191.117 90.8376 190.873 90.472 190.565 90.1646C190.271 89.8517 189.911 89.6069 189.512 89.4475C189.077 89.2836 188.614 89.2025 188.149 89.2085C187.691 89.2002 187.235 89.2814 186.809 89.4475C186.406 89.6133 186.04 89.8571 185.732 90.1648C185.424 90.4725 185.18 90.838 185.014 91.2403C184.664 92.1067 184.664 93.075 185.014 93.9414C185.18 94.344 185.424 94.7097 185.732 95.0171C186.031 95.3355 186.4 95.5809 186.809 95.7342C187.228 95.8972 187.675 95.9784 188.125 95.9732H188.149Z" fill="white"/>
<path d="M199.178 97.4074V87.8459H200.972V94.6824L206.164 87.8459H207.839V97.4074H206.069V90.571L200.972 97.4074H199.178Z" fill="white"/>
<path d="M216.404 97.4075V88.8499L216.835 89.2802H213.222V87.7743H221.381V89.2802H217.72L218.127 88.8499V97.4075H216.404Z" fill="white"/>
<path d="M228.582 95.9015H234.037V97.4074H226.86V87.8459H233.918V89.3519H228.654L228.582 95.9015ZM228.439 91.7661H233.224V93.2243H228.439V91.7661Z" fill="white"/>
<path d="M239.708 97.5509H239.253H238.727V95.9971C238.869 96.0208 239.015 96.0208 239.157 95.9971C239.338 96.0065 239.518 95.9671 239.678 95.883C239.838 95.7988 239.972 95.6731 240.066 95.5191C240.346 95.1056 240.519 94.6292 240.569 94.1326C240.569 93.5112 240.736 92.7462 240.784 91.7423L240.928 87.7504H248.105V97.3118H246.431V88.8499L246.837 89.2802H242.244L242.626 88.826V91.6945C242.607 92.5418 242.543 93.3875 242.435 94.2283C242.355 94.8494 242.202 95.4591 241.98 96.0449C241.804 96.4859 241.515 96.8732 241.143 97.1684C240.73 97.4722 240.217 97.6088 239.708 97.5509Z" fill="white"/>
<path d="M259.183 91.0252C260.134 90.9632 261.076 91.243 261.838 91.814C262.175 92.1079 262.436 92.4787 262.598 92.8949C262.761 93.311 262.82 93.7603 262.772 94.2043C262.795 94.6549 262.715 95.1049 262.536 95.5194C262.358 95.9339 262.086 96.3019 261.743 96.5947C260.925 97.2056 259.914 97.5025 258.896 97.4313H254.733V87.8699H256.503V91.1208L259.183 91.0252ZM258.8 96.0449C259.377 96.0767 259.947 95.8984 260.403 95.543C260.599 95.3713 260.752 95.157 260.852 94.9166C260.951 94.6762 260.994 94.4161 260.977 94.1565C260.997 93.9059 260.958 93.6542 260.862 93.4216C260.766 93.1891 260.617 92.9823 260.427 92.8179C259.945 92.5037 259.374 92.3528 258.8 92.3877H256.407V96.0449H258.8Z" fill="white"/>
<path d="M270.356 97.4074H268.561V87.846H270.356V97.4074ZM275.404 93.2243H270.117V91.6944H275.404V93.2243ZM275.261 87.7264H277.055V97.2879H275.261V87.7264Z" fill="white"/>
<path d="M282.319 97.4074L286.673 87.8459H288.443L292.798 97.4074H290.908L287.175 88.7065H287.893L284.161 97.4074H282.319ZM284.328 95.1844L284.807 93.7741H290.022L290.501 95.1844H284.328Z" fill="white"/>
<path d="M303.325 97.4074V94.3239L303.779 94.7302H300.956C300.234 94.7433 299.517 94.6049 298.851 94.3239C298.303 94.0676 297.838 93.6616 297.511 93.1526C297.205 92.5743 297.045 91.9302 297.045 91.2762C297.045 90.6221 297.205 89.978 297.511 89.3997C297.857 88.868 298.346 88.4452 298.923 88.1806C299.597 87.8997 300.322 87.7613 301.052 87.7743H305.071V97.3357L303.325 97.4074ZM297.08 97.4074L299.473 93.9653H301.291L298.899 97.4074H297.08ZM303.325 93.7502V88.7782L303.779 89.2802H301.148C300.54 89.2381 299.936 89.4163 299.449 89.7822C299.248 89.9753 299.092 90.2105 298.993 90.4709C298.894 90.7312 298.853 91.0103 298.875 91.2881C298.854 91.5566 298.893 91.8263 298.988 92.0782C299.083 92.3302 299.232 92.5582 299.425 92.7462C299.89 93.1214 300.479 93.309 301.076 93.2721H303.851L303.325 93.7502Z" fill="white"/>
<path d="M319.355 97.4075V87.846H321.125V97.4075H319.355ZM320.575 93.3439V91.814H323.829V93.3439H320.575ZM324.092 92.7941L322.441 92.579L325.743 87.7982H327.633L324.092 92.7941ZM325.743 97.4075L322.465 92.6268L323.925 91.7184L327.753 97.3119L325.743 97.4075Z" fill="white"/>
<path d="M337.347 97.5508C336.635 97.5603 335.927 97.4304 335.265 97.1684C334.652 96.9387 334.091 96.5893 333.614 96.1405C333.153 95.6923 332.787 95.1557 332.538 94.5629C332.265 93.937 332.127 93.2613 332.131 92.5789C332.133 91.9206 332.265 91.2692 332.519 90.6621C332.774 90.055 333.146 89.5041 333.614 89.0411C334.096 88.5931 334.655 88.2367 335.265 87.9894C336.612 87.5117 338.082 87.5117 339.428 87.9894C340.038 88.2367 340.597 88.5931 341.079 89.0411C341.533 89.4952 341.899 90.0303 342.156 90.6188C342.42 91.2379 342.55 91.9059 342.538 92.5789C342.554 93.2599 342.423 93.9363 342.156 94.5629C341.911 95.158 341.544 95.6954 341.079 96.1405C340.603 96.5893 340.041 96.9387 339.428 97.1684C338.767 97.4322 338.059 97.5622 337.347 97.5508ZM337.347 95.9732C337.805 95.9814 338.26 95.9002 338.686 95.7341C339.096 95.5808 339.464 95.3355 339.763 95.017C340.072 94.7097 340.316 94.344 340.481 93.9414C340.831 93.0749 340.831 92.1067 340.481 91.2403C340.316 90.8376 340.072 90.4719 339.763 90.1646C339.464 89.8462 339.096 89.6008 338.686 89.4475C338.26 89.2814 337.805 89.2002 337.347 89.2084C336.889 89.1977 336.433 89.279 336.007 89.4475C335.601 89.6065 335.233 89.8511 334.93 90.1646C334.622 90.4719 334.378 90.8376 334.212 91.2403C334.027 91.6615 333.937 92.1187 333.949 92.5789C333.935 93.0469 334.025 93.5123 334.212 93.9414C334.378 94.3384 334.613 94.7026 334.906 95.017C335.214 95.3252 335.58 95.569 335.983 95.7341C336.418 95.9003 336.881 95.9815 337.347 95.9732Z" fill="white"/>
<path d="M348.352 97.4075V87.846H349.812L354.094 94.802H353.329L357.492 87.7743H358.879V97.3358H357.157V90.4276H357.516L354.094 96.3079H353.305L349.716 90.4276H350.123V97.4075H348.352Z" fill="white"/>
<path d="M365.507 97.4074V87.8459H374.048V97.4074H372.278V88.8499L372.684 89.2802H366.847L367.277 88.8499V97.4074H365.507Z" fill="white"/>
<path d="M379.407 97.4074L383.738 87.8459H385.508L389.863 97.4074H387.997L384.264 88.7065H384.958L381.25 97.4074H379.407ZM381.393 95.1844L381.872 93.7741H387.087L387.59 95.1844H381.393Z" fill="white"/>
<path d="M396.992 97.4074H395.198V87.846H396.992V97.4074ZM402.136 93.2243H396.849V91.6944H402.136V93.2243ZM401.993 87.7264H403.787V97.2879H401.945L401.993 87.7264Z" fill="white"/>
<path d="M410.367 97.4074V87.8459H412.137V94.6824L417.329 87.8459H418.98V97.4074H417.233V90.571L412.041 97.4074H410.367Z" fill="white"/>
<path d="M431.158 97.4074V94.3239L431.612 94.7302H428.789C428.067 94.7433 427.349 94.6049 426.684 94.3239C426.135 94.0676 425.671 93.6616 425.344 93.1526C425.038 92.5743 424.878 91.9302 424.878 91.2762C424.878 90.6221 425.038 89.978 425.344 89.3997C425.689 88.868 426.179 88.4452 426.756 88.1806C427.43 87.8997 428.155 87.7613 428.885 87.7743H433.048V97.3357L431.158 97.4074ZM424.913 97.4074L427.306 93.9653H429.124L426.732 97.4074H424.913ZM431.158 93.7502V88.7782L431.612 89.2802H428.981C428.372 89.2381 427.769 89.4163 427.282 89.7822C427.081 89.9753 426.925 90.2105 426.826 90.4709C426.727 90.7312 426.686 91.0103 426.708 91.2881C426.687 91.5566 426.726 91.8263 426.821 92.0782C426.916 92.3302 427.065 92.5582 427.258 92.7462C427.723 93.1214 428.312 93.309 428.909 93.2721H431.612L431.158 93.7502Z" fill="white"/>
</g>
<path d="M103.812 79.408L35.0984 78.8821C35.0984 78.8821 11.0295 84.7146 19.1402 96.9054L57.1814 120.235L103.597 92.0052L103.812 79.408Z" fill="#7993BA"/>
<path d="M24.2124 100.037L58.4734 39.6801C58.4734 39.6801 61.3445 17.7366 46.75 18.9318L11.532 38.9152L11.3167 91.5033L24.2124 100.037Z" fill="#3A5B8C"/>
<path d="M44.0226 20.4377L80.4369 79.5275C80.4369 79.5275 84.0974 79.5275 103.74 79.5275V38.8913L57.66 13.2188L44.0226 20.4377Z" fill="#203A60"/>
<path d="M57.66 4.73291V8.74873L107.712 37.6004V95.4712L57.5404 124.395L7.41686 95.4712V37.1941L3.92377 35.7121V97.4552L57.5404 128.41L111.181 97.4552V35.6164L57.66 4.73291Z" fill="#203A60"/>
<path d="M3.92377 35.7121L57.66 4.73291V8.74873L7.41686 37.1941L3.92377 35.7121Z" fill="white"/>
</g>
<defs>
<clipPath id="clip0_44_4688">
<rect width="433" height="133" fill="white"/>
</clipPath>
</defs>
</svg>
