<svg width="21" height="14" viewBox="0 0 21 14" fill="none" xmlns="http://www.w3.org/2000/svg">
<path fill-rule="evenodd" clip-rule="evenodd" d="M1 7.18859C1 7.00625 1.07243 6.83138 1.20136 6.70245C1.3303 6.57352 1.50516 6.50109 1.6875 6.50109L17.9029 6.50109L13.5758 2.17534C13.4467 2.04624 13.3741 1.87115 13.3741 1.68859C13.3741 1.50602 13.4467 1.33093 13.5758 1.20184C13.7048 1.07274 13.8799 1.00022 14.0625 1.00022C14.2451 1.00022 14.4202 1.07274 14.5493 1.20184L20.0493 6.70183C20.1133 6.7657 20.1641 6.84156 20.1987 6.92509C20.2334 7.00861 20.2512 7.09815 20.2512 7.18858C20.2512 7.27901 20.2334 7.36856 20.1987 7.45208C20.1641 7.53561 20.1133 7.61147 20.0493 7.67534L14.5493 13.1753C14.4202 13.3044 14.2451 13.377 14.0625 13.377C13.8799 13.377 13.7048 13.3044 13.5758 13.1753C13.4467 13.0462 13.3741 12.8712 13.3741 12.6886C13.3741 12.506 13.4467 12.3309 13.5758 12.2018L17.9029 7.87609L1.6875 7.87609C1.50516 7.87609 1.3303 7.80365 1.20136 7.67472C1.07243 7.54579 1 7.37092 1 7.18859Z" fill="#677EA1" stroke="#677EA1"/>
</svg>
